<svg width="16" height="16" viewBox="0 0 18 18" fill="white" xmlns="http://www.w3.org/2000/svg"><path d="M3.40847 15.1661H0.267804V5.05205H3.40847V15.1661ZM1.83645 3.6724C0.832164 3.6724 0.0175781 2.84055 0.0175781 1.83624C0.0175781 1.35384 0.209209 0.891192 0.550313 0.550081C0.891417 0.208969 1.35405 0.017334 1.83645 0.017334C2.31884 0.017334 2.78148 0.208969 3.12258 0.550081C3.46369 0.891192 3.65532 1.35384 3.65532 1.83624C3.65532 2.84055 2.84039 3.6724 1.83645 3.6724ZM15.163 15.1661H12.0291V10.2427C12.0291 9.06928 12.0054 7.56451 10.3962 7.56451C8.7633 7.56451 8.51308 8.83934 8.51308 10.1581V15.1661H5.37579V5.05205H8.38796V6.43171H8.43192C8.85122 5.63705 9.87545 4.79844 11.4035 4.79844C14.5821 4.79844 15.1664 6.89159 15.1664 9.61032V15.1661H15.163Z"></path></svg>